<svg width="365" height="365" viewBox="0 0 365 365" fill="none" xmlns="http://www.w3.org/2000/svg">
  <path d="M182.5 22.8125C226.557 22.8125 262.344 58.5996 262.344 102.656C262.344 146.713 226.557 182.5 182.5 182.5C138.443 182.5 102.656 146.713 102.656 102.656C102.656 58.5996 138.443 22.8125 182.5 22.8125ZM273.75 250.938C311.462 250.938 342.188 281.663 342.188 319.375V342.188H22.8125V319.375C22.8125 281.663 53.5381 250.938 91.25 250.938C151.846 250.938 139.228 262.344 182.5 262.344C225.915 262.344 213.083 250.938 273.75 250.938ZM182.5 0C125.825 0 79.8438 45.9814 79.8438 102.656C79.8438 159.331 125.825 205.312 182.5 205.312C239.175 205.312 285.156 159.331 285.156 102.656C285.156 45.9814 239.175 0 182.5 0ZM273.75 228.125C207.879 228.125 223.135 239.531 182.5 239.531C142.008 239.531 157.05 228.125 91.25 228.125C40.8486 228.125 0 268.974 0 319.375V342.188C0 354.806 10.1943 365 22.8125 365H342.188C354.806 365 365 354.806 365 342.188V319.375C365 268.974 324.151 228.125 273.75 228.125Z" fill="white"/>
</svg>
